<svg id="Layer_1" data-name="Layer 1" xmlns="http://www.w3.org/2000/svg" viewBox="0 0 157.94 171.44"><defs><style>.cls-1{fill:#274c5a;}</style></defs><path class="cls-1" d="M22.15,149.81H14.24V132c0-2.83,3.9-2.48,3.9-2.48v16.85h6.58S25.24,149.81,22.15,149.81Z"/><path class="cls-1" d="M35,147.29s-2.59,2.82-4.81,2.82a4,4,0,0,1-4.27-4.27c0-3.54,3.4-5.19,8.63-5.19v-.54c0-1.81-.7-2.62-2.68-2.62a10.35,10.35,0,0,0-2.23.29,15.11,15.11,0,0,0-2.27.73,2.65,2.65,0,0,1,2.1-3.7h0a17.69,17.69,0,0,1,2.91-.26c4.63,0,6,1.92,6,5.26V146c0,1.2,0,2.61.12,3.84C38.48,149.81,35,150.65,35,147.29Zm-.45-4.12c-3.88,0-4.93,1-4.93,2.25a1.71,1.71,0,0,0,1.8,1.75c1.86,0,3.13-1.81,3.13-3.61Z"/><path class="cls-1" d="M43,134.88H53.46L45.7,146.33c.63,0,3.48,0,4.59,0H52.9s.41,3.51-2.71,3.51h-11L47,138.27H39.83C39.83,134.36,43,134.88,43,134.88Z"/><path class="cls-1" d="M64.1,149.82a11.52,11.52,0,0,1-3.06.38c-4.72,0-7.28-2.46-7.28-7.72,0-4.48,2.65-7.9,7.1-7.9S67,137.37,67,140.92a13.78,13.78,0,0,1-.15,2.16H57.67c0,2.64,1.23,4,4.12,4a11.5,11.5,0,0,0,4.32-.88A2.8,2.8,0,0,1,64.1,149.82ZM60.65,137.4c-1.6,0-2.74,1.17-2.95,3.13h5.53C63.29,138.48,62.27,137.4,60.65,137.4Z"/><path class="cls-1" d="M72.56,134.88c0,.43-.06,1.7,0,2.67l0,0a5.34,5.34,0,0,1,4.93-3,3.84,3.84,0,0,1,4.11,3,5.33,5.33,0,0,1,4.87-3c2.88,0,4.48,1.59,4.48,5v8S91,150,87.13,150v-9.66c0-1.6-.36-2.59-1.77-2.59-1.68,0-3.43,2-3.43,4.87v5s.41,2.42-3.78,2.42v-9.69c0-1.48-.3-2.56-1.77-2.56-1.78,0-3.43,2.08-3.43,4.87v4.76S73.39,150,69.1,150V137.22C69.1,134.65,72.56,134.88,72.56,134.88Z"/><path class="cls-1" d="M131.84,149.81h11.47V132c0-2.83-3.91-2.48-3.91-2.48v16.85H129.26S128.74,149.81,131.84,149.81Z"/><path class="cls-1" d="M133.62,131.3l3.78,13.57h-4l-4.33-15.35S132.91,128.9,133.62,131.3Z"/><path class="cls-1" d="M120.2,156.48c-3.34.35-3.17-3-3.17-3h2.37c2,0,3.15-.94,3.15-4.1V134.53s3.86-.31,3.86,2.33V149.2c0,3.52-1.15,6.71-6.21,7.28Z"/><path class="cls-1" d="M122.55,130v3.89h3.86v-1.56C126.41,129.68,122.55,130,122.55,130Z"/><path class="cls-1" d="M99.23,156.36l-.46-2.94-1-6.33c-.65-4.15.85-7.05,5.53-7.05h.7c.67-3,3.16-5.41,7.34-5.41,4.6,0,6.61,2.63,6.61,6.73v8.45h-6.4c-6.66,0-7.35-3.25-7.73-6.73h-.64c-1.69,0-2.16,1-1.72,3.72l.9,5.61S103.37,155.88,99.23,156.36Zm15-14.53c0-2.93-1.17-4.16-3.13-4.16-2.19,0-3.48,1.67-3.48,4,0,2.75.08,5.15,4.39,5.15h2.22Z"/><path class="cls-1" d="M128.72,22.08a38.45,38.45,0,0,0-50,1.64,38.45,38.45,0,0,0-56,52.41c8.14,9.56,22.22,16,41.66,8.86,9.82-3.63,15-4.87,26.34,1.41l1.83,1c1.35.6,3.25,1.4,4.82,2,3,1.12,6.48,2.4,3.34,4.58a7.8,7.8,0,0,1-2.83,1.31,25.93,25.93,0,0,0,7.57,0c7.26-1.12,19.1-9.12,26.4-17.82.1-.1,6.87-6.45,9.49-13.83A38.46,38.46,0,0,0,128.72,22.08ZM82.21,32.16a1.63,1.63,0,1,1-1.63,1.63A1.63,1.63,0,0,1,82.21,32.16ZM70.71,54.34S70.06,56,69.08,56l-16-.82v0a.79.79,0,0,1,0-1.57v0h.11l16.27-.82c.28-.42.57-.94.75-1.25s.16-.28.18-.31a1.44,1.44,0,0,1,1.41-.92c.56.06.85.93.91,1.25l0,.12,1.24,3.83a1.58,1.58,0,0,1-1.3,1.82l-.27,0A1.58,1.58,0,0,1,70.8,56Zm.54,5A1.63,1.63,0,1,1,72.88,61,1.62,1.62,0,0,1,71.25,59.32Zm.49,3.59a1.63,1.63,0,1,1,1.63,1.63A1.63,1.63,0,0,1,71.74,62.91ZM106,50.42h-.06l-16,.79h-.13c-1.77,0-1.88-1.72-2.17-2-.36,1.9-.85,2.34-1.28,2.51a2.41,2.41,0,0,1-.72.11,1.79,1.79,0,0,1-1.79-1.45l0-.26-1.21-9.82L78.67,70.64a2.7,2.7,0,0,1-5.39,0l-.74-3.76a1.58,1.58,0,1,1,3.11-.61l.28,3.53,3.84-31a2.7,2.7,0,0,1,5.39,0l1.36,8.66c.28-.5.58-1.81,1.17-1.85.4,0,.65.34,1,1.19q.39.87.6,1.23l16.65.82v0l.06,0a.79.79,0,0,1,.78.78A.77.77,0,0,1,106,50.42Z"/><path class="cls-1" d="M88.68,94.75l-3.45-1.48s-4.39-1.88-6.56-1.87a13.88,13.88,0,0,0-6.37,1.73C66.7,95.8,62.09,99,54.23,101.89c-3,1.12-6.48,2.4-3.34,4.58,1.61,1.11,4.32,3.31,13.31-.5,8.12-3.43,13.76-5.31,21.49-1.38,0,0,2.32,1.15,2.57,3.28.14,1.23-1,2.36-5.7,2.47a10.92,10.92,0,0,0-5.12,2.11c-2.21,1.84-4.06,1.74-6.16,2.1-2.75.46-4.25,1.67-4.2,3.14,0,1,.39,1.85,2.29,2.8a18.83,18.83,0,0,0,6.69,1.44,31.32,31.32,0,0,0,4.1-.25,44.7,44.7,0,0,0,27.52-13.75c3.89-4.23,13.21-15.24,19.38-22.57-7.15,6.33-15.47,11.1-21.28,12a28,28,0,0,1-4.2.32,29.91,29.91,0,0,1-7.29-.92A37.3,37.3,0,0,1,88.68,94.75Z"/></svg>